<svg width="209" height="48" viewBox="0 0 209 48" fill="none" xmlns="http://www.w3.org/2000/svg">
<path d="M94.651 32.9523C92.9384 32.9523 91.3859 32.5833 89.9934 31.8452C88.6169 31.091 87.5285 30.0561 86.7282 28.7403C85.944 27.4085 85.5518 25.9082 85.5518 24.2395C85.5518 22.5707 85.944 21.0785 86.7282 19.7627C87.5285 18.4309 88.6169 17.3959 89.9934 16.6578C91.3859 15.9037 92.9464 15.5266 94.6751 15.5266C96.1316 15.5266 97.444 15.7833 98.6125 16.2968C99.7969 16.8103 100.789 17.5484 101.59 18.5111L99.0926 20.8217C97.9562 19.506 96.5477 18.8481 94.8671 18.8481C93.8268 18.8481 92.8984 19.0808 92.0821 19.5461C91.2658 19.9954 90.6256 20.6292 90.1615 21.4475C89.7133 22.2658 89.4892 23.1965 89.4892 24.2395C89.4892 25.2825 89.7133 26.2131 90.1615 27.0314C90.6256 27.8498 91.2658 28.4916 92.0821 28.9569C92.8984 29.4062 93.8268 29.6309 94.8671 29.6309C96.5477 29.6309 97.9562 28.965 99.0926 27.6332L101.59 29.9438C100.789 30.9226 99.7969 31.6687 98.6125 32.1821C97.428 32.6956 96.1076 32.9523 94.651 32.9523Z" fill="#272727"/>
<path d="M111.542 32.9523C109.141 32.9523 107.268 32.2864 105.924 30.9546C104.596 29.6228 103.931 27.7214 103.931 25.2504V15.8154H107.821V25.106C107.821 28.1226 109.069 29.6309 111.566 29.6309C112.782 29.6309 113.711 29.2698 114.351 28.5478C114.991 27.8097 115.311 26.6624 115.311 25.106V15.8154H119.153V25.2504C119.153 27.7214 118.48 29.6228 117.136 30.9546C115.808 32.2864 113.943 32.9523 111.542 32.9523Z" fill="#272727"/>
<path d="M135.336 23.9025C136.297 24.2074 137.049 24.7209 137.593 25.4429C138.137 26.1489 138.41 27.0234 138.41 28.0664C138.41 29.5426 137.833 30.6819 136.681 31.4842C135.545 32.2704 133.88 32.6635 131.687 32.6635H122.996V15.8154H131.207C133.256 15.8154 134.824 16.2086 135.913 16.9948C137.017 17.781 137.569 18.8481 137.569 20.1959C137.569 21.0143 137.369 21.7444 136.969 22.3862C136.585 23.028 136.041 23.5335 135.336 23.9025ZM126.861 18.7518V22.7232H130.727C131.687 22.7232 132.415 22.5547 132.912 22.2177C133.408 21.8807 133.656 21.3833 133.656 20.7254C133.656 20.0676 133.408 19.5782 132.912 19.2573C132.415 18.9203 131.687 18.7518 130.727 18.7518H126.861ZM131.399 29.7271C132.423 29.7271 133.192 29.5587 133.704 29.2217C134.232 28.8847 134.496 28.3632 134.496 27.6572C134.496 26.2612 133.464 25.5633 131.399 25.5633H126.861V29.7271H131.399Z" fill="#272727"/>
<path d="M152.422 29.0532H144.619L143.131 32.6635H139.145L146.636 15.8154H150.477L157.992 32.6635H153.911L152.422 29.0532ZM151.198 26.0928L148.533 19.6424L145.868 26.0928H151.198Z" fill="#272727"/>
<path d="M162.373 18.9925H156.995V15.8154H171.64V18.9925H166.262V32.6635H162.373V18.9925Z" fill="#272727"/>
<path d="M181.637 32.9523C179.893 32.9523 178.316 32.5753 176.908 31.8211C175.515 31.067 174.419 30.032 173.618 28.7163C172.834 27.3845 172.442 25.8922 172.442 24.2395C172.442 22.5868 172.834 21.1025 173.618 19.7868C174.419 18.455 175.515 17.412 176.908 16.6578C178.316 15.9037 179.893 15.5266 181.637 15.5266C183.382 15.5266 184.95 15.9037 186.343 16.6578C187.735 17.412 188.832 18.455 189.632 19.7868C190.432 21.1025 190.833 22.5868 190.833 24.2395C190.833 25.8922 190.432 27.3845 189.632 28.7163C188.832 30.032 187.735 31.067 186.343 31.8211C184.95 32.5753 183.382 32.9523 181.637 32.9523ZM181.637 29.6309C182.63 29.6309 183.526 29.4062 184.326 28.9569C185.127 28.4916 185.751 27.8498 186.199 27.0314C186.663 26.2131 186.895 25.2825 186.895 24.2395C186.895 23.1965 186.663 22.2658 186.199 21.4475C185.751 20.6292 185.127 19.9954 184.326 19.5461C183.526 19.0808 182.63 18.8481 181.637 18.8481C180.645 18.8481 179.749 19.0808 178.948 19.5461C178.148 19.9954 177.516 20.6292 177.052 21.4475C176.604 22.2658 176.379 23.1965 176.379 24.2395C176.379 25.2825 176.604 26.2131 177.052 27.0314C177.516 27.8498 178.148 28.4916 178.948 28.9569C179.749 29.4062 180.645 29.6309 181.637 29.6309Z" fill="#272727"/>
<path d="M204.463 32.6635L201.222 27.9701H201.03H197.645V32.6635H193.756V15.8154H201.03C202.519 15.8154 203.807 16.0641 204.896 16.5616C206 17.059 206.848 17.765 207.44 18.6796C208.033 19.5942 208.329 20.6773 208.329 21.9289C208.329 23.1805 208.025 24.2635 207.416 25.1782C206.824 26.0767 205.976 26.7667 204.872 27.2481L208.641 32.6635H204.463ZM204.391 21.9289C204.391 20.9822 204.087 20.2601 203.479 19.7627C202.871 19.2492 201.983 18.9925 200.814 18.9925H197.645V24.8653H200.814C201.983 24.8653 202.871 24.6085 203.479 24.0951C204.087 23.5816 204.391 22.8595 204.391 21.9289Z" fill="#272727"/>
<path d="M0 15.8413H3.8833V32.6334H0V15.8413Z" fill="#272727"/>
<path d="M11.3413 19.0078H5.97177V15.8413H20.5941V19.0078H15.2246V32.6334H11.3413V19.0078Z" fill="#272727"/>
<path d="M44.9877 15.8413H48.8764V32.6334H44.9877V15.8413Z" fill="#272727"/>
<path d="M68.2748 15.8413V32.6334H65.0822L56.7047 22.4382V32.6334H52.8641V15.8413H56.0806L64.4341 26.0365V15.8413H68.2748Z" fill="#272727"/>
<path fill-rule="evenodd" clip-rule="evenodd" d="M46.6492 8.71143C48.0927 8.71143 49.2631 9.88182 49.2631 11.3253C49.2631 12.7687 48.0927 13.9391 46.6492 13.9391C45.2058 13.9391 44.0353 12.7687 44.0353 11.3253C44.0353 9.88182 45.2058 8.71143 46.6492 8.71143Z" fill="#FF0808"/>
<path fill-rule="evenodd" clip-rule="evenodd" d="M25.9899 21.386C27.4775 21.386 28.683 22.556 28.683 23.9998C28.683 25.4437 27.4775 26.6137 25.9899 26.6137C24.5024 26.6137 23.2969 25.4437 23.2969 23.9998C23.2969 22.556 24.5024 21.386 25.9899 21.386Z" fill="#272727"/>
<path fill-rule="evenodd" clip-rule="evenodd" d="M56.6373 46C68.7876 46 78.6373 36.1503 78.6373 24C78.6373 11.8497 68.7876 2 56.6373 2C44.4871 2 34.6373 11.8497 34.6373 24C34.6373 36.1503 44.4871 46 56.6373 46ZM56.6373 48C69.8922 48 80.6373 37.2548 80.6373 24C80.6373 10.7452 69.8922 0 56.6373 0C43.3825 0 32.6373 10.7452 32.6373 24C32.6373 37.2548 43.3825 48 56.6373 48Z" fill="#272727"/>
</svg>
